# xmcd CD database file
#
# Track frame offsets:
#	150
#	26155
#	59175
#	95380
#	127717
#	153990
#	173550
#	198842
#	233667
#
# Disc length: 3541 seconds
#
# Revision: 0
# Processed by: cddbd v1.5PL3 Copyright (c) Steve Scherf et al.
# Submitted via: CDex 1.51
#
DISCID=6a0dd309
DTITLE=Joe Farnsworth - It's Prime Time
DYEAR=2003
DGENRE=Jazz
TTITLE0=Sweet Poppa
TTITLE1=Old Folks
TTITLE2=It's Prime Time
TTITLE3=Stable Mates
TTITLE4=Five Spot After Dark
TTITLE5=And So, I Love Again
TTITLE6=The Third Plane
TTITLE7=Hello, Young Lovers
TTITLE8=Jose's Lament
EXTD=YEAR: 2003
EXTT0=
EXTT1=
EXTT2=
EXTT3=
EXTT4=
EXTT5=
EXTT6=
EXTT7=
EXTT8=
PLAYORDER=
